# xmcd CD database file
#
# Track frame offsets:
#	150
#	13864
#	64109
#	91791
#	123819
#	152188
#	181251
#	215320
#	254568
#	284382
#
# Disc length: 3966 seconds
#
# Revision: 0
# Processed by: cddbd v1.4PL0 Copyright (c) Steve Scherf et al.
# Submitted via: CDex 1.50
#
DISCID=860f7c0a
DTITLE=Mike Cohen - Fugue
DYEAR=1997
DGENRE=Jazz
TTITLE0=Exposition
TTITLE1=Yanalou for Two
TTITLE2=End of the Tunnel
TTITLE3=First Snow
TTITLE4=Jeckyll Island
TTITLE5=Dusk
TTITLE6=Walking the Mechanical Dog
TTITLE7=3D Blues
TTITLE8=Neptune
TTITLE9=Recapitulation
EXTD=YEAR: 1997
EXTT0=
EXTT1=
EXTT2=
EXTT3=
EXTT4=
EXTT5=
EXTT6=
EXTT7=
EXTT8=
EXTT9=
PLAYORDER=
